{
    "asset" : {
        "generator" : "Khronos glTF Blender I/O v3.2.43",
        "version" : "2.0"
    },
    "extensionsUsed" : [
        "KHR_lights_punctual"
    ],
    "extensionsRequired" : [
        "KHR_lights_punctual"
    ],
    "extensions" : {
        "KHR_lights_punctual" : {
            "lights" : [
                {
                    "color" : [
                        1,
                        1,
                        1
                    ],
                    "intensity" : 1,
                    "type" : "point",
                    "name" : "Light"
                },
                {
                    "color" : [
                        1,
                        1,
                        1
                    ],
                    "intensity" : 1,
                    "type" : "point",
                    "name" : "Point"
                },
                {
                    "color" : [
                        1,
                        1,
                        1
                    ],
                    "intensity" : 1,
                    "type" : "point",
                    "name" : "Point.001"
                }
            ]
        }
    },
    "scene" : 0,
    "scenes" : [
        {
            "name" : "Scene",
            "nodes" : [
                0,
                1,
                2,
                3,
                4,
                5,
                6,
                7,
                8,
                9
            ]
        }
    ],
    "nodes" : [
        {
            "extensions" : {
                "KHR_lights_punctual" : {
                    "light" : 0
                }
            },
            "name" : "Light",
            "rotation" : [
                -0.2841663062572479,
                0.7269423604011536,
                0.34203392267227173,
                0.5232754349708557
            ],
            "translation" : [
                0.25116562843322754,
                1.2034635543823242,
                -0.06235361099243164
            ]
        },
        {
            "mesh" : 0,
            "name" : "Cube",
            "scale" : [
                0.10000002384185791,
                0.10000002384185791,
                0.10000002384185791
            ],
            "translation" : [
                0,
                0.2176627516746521,
                0.3239404559135437
            ]
        },
        {
            "mesh" : 1,
            "name" : "Cylinder",
            "rotation" : [
                -0.7085090279579163,
                0,
                0,
                0.7057018280029297
            ],
            "scale" : [
                0.07499998807907104,
                0.034999992698431015,
                0.034999996423721313
            ],
            "translation" : [
                -0.0019013925921171904,
                0.23066680133342743,
                0.2761698365211487
            ]
        },
        {
            "mesh" : 2,
            "name" : "Cylinder.001",
            "rotation" : [
                -0.7085090279579163,
                0,
                0,
                0.7057018280029297
            ],
            "scale" : [
                0.019999999552965164,
                0.034999992698431015,
                0.019999997690320015
            ],
            "translation" : [
                -0.0821443423628807,
                0.26112279295921326,
                0.25984513759613037
            ]
        },
        {
            "mesh" : 3,
            "name" : "Cylinder.002",
            "rotation" : [
                -0.7085090279579163,
                0,
                0,
                0.7057018280029297
            ],
            "scale" : [
                0.019999999552965164,
                0.034999992698431015,
                0.019999997690320015
            ],
            "translation" : [
                0.08076568692922592,
                0.2586221396923065,
                0.2612072825431824
            ]
        },
        {
            "mesh" : 4,
            "name" : "Cylinder.003",
            "rotation" : [
                -0.7085090279579163,
                0,
                0,
                0.7057018280029297
            ],
            "scale" : [
                0.019999999552965164,
                0.034999992698431015,
                0.019999997690320015
            ],
            "translation" : [
                0.07074011117219925,
                0.193900927901268,
                0.2751436233520508
            ]
        },
        {
            "mesh" : 5,
            "name" : "Cylinder.004",
            "rotation" : [
                -0.7085090279579163,
                0,
                0,
                0.7057018280029297
            ],
            "scale" : [
                0.019999999552965164,
                0.034999992698431015,
                0.019999997690320015
            ],
            "translation" : [
                -0.07331087440252304,
                0.19408933818340302,
                0.27017754316329956
            ]
        },
        {
            "extensions" : {
                "KHR_lights_punctual" : {
                    "light" : 1
                }
            },
            "name" : "Point",
            "rotation" : [
                -0.7071068286895752,
                0,
                0,
                0.7071068286895752
            ],
            "translation" : [
                -2.1586320400238037,
                1.480181097984314,
                -0.25061988830566406
            ]
        },
        {
            "extensions" : {
                "KHR_lights_punctual" : {
                    "light" : 2
                }
            },
            "name" : "Point.001",
            "rotation" : [
                -0.7071068286895752,
                0,
                0,
                0.7071068286895752
            ],
            "translation" : [
                0,
                1.6907451152801514,
                3.046243190765381
            ]
        },
        {
            "mesh" : 6,
            "name" : "Plane",
            "rotation" : [
                0.7044069170951843,
                0,
                0,
                0.7097963690757751
            ],
            "translation" : [
                0,
                0.5916508436203003,
                -1.310259461402893
            ]
        }
    ],
    "materials" : [
        {
            "doubleSided" : true,
            "name" : "Material.001",
            "pbrMetallicRoughness" : {
                "baseColorFactor" : [
                    0.30890709161758423,
                    0.2468966394662857,
                    0.3303391933441162,
                    1
                ],
                "metallicFactor" : 0.02088773250579834,
                "roughnessFactor" : 0.20330289006233215
            }
        },
        {
            "doubleSided" : true,
            "name" : "Material.003",
            "pbrMetallicRoughness" : {
                "baseColorFactor" : [
                    0.22341032326221466,
                    0.22341032326221466,
                    0.22341032326221466,
                    1
                ],
                "metallicFactor" : 0,
                "roughnessFactor" : 0.5
            }
        },
        {
            "doubleSided" : true,
            "name" : "Material.004",
            "pbrMetallicRoughness" : {
                "baseColorFactor" : [
                    0.165285125374794,
                    0.165285125374794,
                    0.165285125374794,
                    1
                ],
                "metallicFactor" : 0,
                "roughnessFactor" : 0.5
            }
        },
        {
            "doubleSided" : true,
            "name" : "Material.005",
            "pbrMetallicRoughness" : {
                "baseColorFactor" : [
                    0.165285125374794,
                    0.165285125374794,
                    0.165285125374794,
                    1
                ],
                "metallicFactor" : 0,
                "roughnessFactor" : 0.5
            }
        },
        {
            "doubleSided" : true,
            "name" : "Material.006",
            "pbrMetallicRoughness" : {
                "baseColorFactor" : [
                    0.21096527576446533,
                    0.21096527576446533,
                    0.21096527576446533,
                    1
                ],
                "metallicFactor" : 0,
                "roughnessFactor" : 0.5
            }
        },
        {
            "doubleSided" : true,
            "name" : "Material.002",
            "pbrMetallicRoughness" : {
                "baseColorFactor" : [
                    0.165285125374794,
                    0.165285125374794,
                    0.165285125374794,
                    1
                ],
                "metallicFactor" : 0,
                "roughnessFactor" : 0.5
            }
        },
        {
            "doubleSided" : true,
            "name" : "Material",
            "pbrMetallicRoughness" : {
                "baseColorTexture" : {
                    "index" : 0
                },
                "metallicFactor" : 0,
                "roughnessFactor" : 0.5
            }
        }
    ],
    "meshes" : [
        {
            "name" : "Cube.004",
            "primitives" : [
                {
                    "attributes" : {
                        "POSITION" : 0,
                        "NORMAL" : 1,
                        "TEXCOORD_0" : 2
                    },
                    "indices" : 3,
                    "material" : 0
                }
            ]
        },
        {
            "name" : "Cylinder.006",
            "primitives" : [
                {
                    "attributes" : {
                        "POSITION" : 4,
                        "NORMAL" : 5,
                        "TEXCOORD_0" : 6
                    },
                    "indices" : 7,
                    "material" : 1
                }
            ]
        },
        {
            "name" : "Cylinder.007",
            "primitives" : [
                {
                    "attributes" : {
                        "POSITION" : 8,
                        "NORMAL" : 9,
                        "TEXCOORD_0" : 10
                    },
                    "indices" : 7,
                    "material" : 2
                }
            ]
        },
        {
            "name" : "Cylinder.008",
            "primitives" : [
                {
                    "attributes" : {
                        "POSITION" : 11,
                        "NORMAL" : 12,
                        "TEXCOORD_0" : 13
                    },
                    "indices" : 7,
                    "material" : 3
                }
            ]
        },
        {
            "name" : "Cylinder.009",
            "primitives" : [
                {
                    "attributes" : {
                        "POSITION" : 14,
                        "NORMAL" : 15,
                        "TEXCOORD_0" : 16
                    },
                    "indices" : 7,
                    "material" : 4
                }
            ]
        },
        {
            "name" : "Cylinder.010",
            "primitives" : [
                {
                    "attributes" : {
                        "POSITION" : 17,
                        "NORMAL" : 18,
                        "TEXCOORD_0" : 19
                    },
                    "indices" : 7,
                    "material" : 5
                }
            ]
        },
        {
            "name" : "Plane",
            "primitives" : [
                {
                    "attributes" : {
                        "POSITION" : 20,
                        "NORMAL" : 21,
                        "TEXCOORD_0" : 22
                    },
                    "indices" : 23,
                    "material" : 6
                }
            ]
        }
    ],
    "textures" : [
        {
            "sampler" : 0,
            "source" : 0
        }
    ],
    "images" : [
        {
            "bufferView" : 24,
            "mimeType" : "image/jpeg",
            "name" : "alex"
        }
    ],
    "accessors" : [
        {
            "bufferView" : 0,
            "componentType" : 5126,
            "count" : 768,
            "max" : [
                6.660222053527832,
                1.3222343921661377,
                -0.13756081461906433
            ],
            "min" : [
                -6.660222053527832,
                -0.7915917038917542,
                -7.74906063079834
            ],
            "type" : "VEC3"
        },
        {
            "bufferView" : 1,
            "componentType" : 5126,
            "count" : 768,
            "type" : "VEC3"
        },
        {
            "bufferView" : 2,
            "componentType" : 5126,
            "count" : 768,
            "type" : "VEC2"
        },
        {
            "bufferView" : 3,
            "componentType" : 5123,
            "count" : 1152,
            "type" : "SCALAR"
        },
        {
            "bufferView" : 4,
            "componentType" : 5126,
            "count" : 192,
            "max" : [
                1,
                1,
                1
            ],
            "min" : [
                -1,
                -1,
                -1
            ],
            "type" : "VEC3"
        },
        {
            "bufferView" : 5,
            "componentType" : 5126,
            "count" : 192,
            "type" : "VEC3"
        },
        {
            "bufferView" : 6,
            "componentType" : 5126,
            "count" : 192,
            "type" : "VEC2"
        },
        {
            "bufferView" : 7,
            "componentType" : 5123,
            "count" : 372,
            "type" : "SCALAR"
        },
        {
            "bufferView" : 8,
            "componentType" : 5126,
            "count" : 192,
            "max" : [
                1,
                1,
                1
            ],
            "min" : [
                -1,
                -1,
                -1
            ],
            "type" : "VEC3"
        },
        {
            "bufferView" : 9,
            "componentType" : 5126,
            "count" : 192,
            "type" : "VEC3"
        },
        {
            "bufferView" : 10,
            "componentType" : 5126,
            "count" : 192,
            "type" : "VEC2"
        },
        {
            "bufferView" : 11,
            "componentType" : 5126,
            "count" : 192,
            "max" : [
                1,
                1,
                1
            ],
            "min" : [
                -1,
                -1,
                -1
            ],
            "type" : "VEC3"
        },
        {
            "bufferView" : 12,
            "componentType" : 5126,
            "count" : 192,
            "type" : "VEC3"
        },
        {
            "bufferView" : 13,
            "componentType" : 5126,
            "count" : 192,
            "type" : "VEC2"
        },
        {
            "bufferView" : 14,
            "componentType" : 5126,
            "count" : 192,
            "max" : [
                1,
                1,
                1
            ],
            "min" : [
                -1,
                -1,
                -1
            ],
            "type" : "VEC3"
        },
        {
            "bufferView" : 15,
            "componentType" : 5126,
            "count" : 192,
            "type" : "VEC3"
        },
        {
            "bufferView" : 16,
            "componentType" : 5126,
            "count" : 192,
            "type" : "VEC2"
        },
        {
            "bufferView" : 17,
            "componentType" : 5126,
            "count" : 192,
            "max" : [
                1,
                1,
                1
            ],
            "min" : [
                -1,
                -1,
                -1
            ],
            "type" : "VEC3"
        },
        {
            "bufferView" : 18,
            "componentType" : 5126,
            "count" : 192,
            "type" : "VEC3"
        },
        {
            "bufferView" : 19,
            "componentType" : 5126,
            "count" : 192,
            "type" : "VEC2"
        },
        {
            "bufferView" : 20,
            "componentType" : 5126,
            "count" : 4,
            "max" : [
                1,
                0,
                1
            ],
            "min" : [
                -1,
                0,
                -1
            ],
            "type" : "VEC3"
        },
        {
            "bufferView" : 21,
            "componentType" : 5126,
            "count" : 4,
            "type" : "VEC3"
        },
        {
            "bufferView" : 22,
            "componentType" : 5126,
            "count" : 4,
            "type" : "VEC2"
        },
        {
            "bufferView" : 23,
            "componentType" : 5123,
            "count" : 6,
            "type" : "SCALAR"
        }
    ],
    "bufferViews" : [
        {
            "buffer" : 0,
            "byteLength" : 9216,
            "byteOffset" : 0
        },
        {
            "buffer" : 0,
            "byteLength" : 9216,
            "byteOffset" : 9216
        },
        {
            "buffer" : 0,
            "byteLength" : 6144,
            "byteOffset" : 18432
        },
        {
            "buffer" : 0,
            "byteLength" : 2304,
            "byteOffset" : 24576
        },
        {
            "buffer" : 0,
            "byteLength" : 2304,
            "byteOffset" : 26880
        },
        {
            "buffer" : 0,
            "byteLength" : 2304,
            "byteOffset" : 29184
        },
        {
            "buffer" : 0,
            "byteLength" : 1536,
            "byteOffset" : 31488
        },
        {
            "buffer" : 0,
            "byteLength" : 744,
            "byteOffset" : 33024
        },
        {
            "buffer" : 0,
            "byteLength" : 2304,
            "byteOffset" : 33768
        },
        {
            "buffer" : 0,
            "byteLength" : 2304,
            "byteOffset" : 36072
        },
        {
            "buffer" : 0,
            "byteLength" : 1536,
            "byteOffset" : 38376
        },
        {
            "buffer" : 0,
            "byteLength" : 2304,
            "byteOffset" : 39912
        },
        {
            "buffer" : 0,
            "byteLength" : 2304,
            "byteOffset" : 42216
        },
        {
            "buffer" : 0,
            "byteLength" : 1536,
            "byteOffset" : 44520
        },
        {
            "buffer" : 0,
            "byteLength" : 2304,
            "byteOffset" : 46056
        },
        {
            "buffer" : 0,
            "byteLength" : 2304,
            "byteOffset" : 48360
        },
        {
            "buffer" : 0,
            "byteLength" : 1536,
            "byteOffset" : 50664
        },
        {
            "buffer" : 0,
            "byteLength" : 2304,
            "byteOffset" : 52200
        },
        {
            "buffer" : 0,
            "byteLength" : 2304,
            "byteOffset" : 54504
        },
        {
            "buffer" : 0,
            "byteLength" : 1536,
            "byteOffset" : 56808
        },
        {
            "buffer" : 0,
            "byteLength" : 48,
            "byteOffset" : 58344
        },
        {
            "buffer" : 0,
            "byteLength" : 48,
            "byteOffset" : 58392
        },
        {
            "buffer" : 0,
            "byteLength" : 32,
            "byteOffset" : 58440
        },
        {
            "buffer" : 0,
            "byteLength" : 12,
            "byteOffset" : 58472
        },
        {
            "buffer" : 0,
            "byteLength" : 33240,
            "byteOffset" : 58484
        }
    ],
    "samplers" : [
        {
            "magFilter" : 9729,
            "minFilter" : 9987
        }
    ],
    "buffers" : [
        {
            "byteLength" : 91724,
            "uri" : "data:application/octet-stream;base64,"
        }
    ]
}
